<svg width="32" height="28" viewBox="0 0 32 28" fill="none" xmlns="http://www.w3.org/2000/svg">
<path fill-rule="evenodd" clip-rule="evenodd" d="M8.27536 3.57251H12.8795C15.7855 3.57251 18.1413 5.66185 18.1413 8.23918V22.2392H14.1949C14.1949 19.984 12.1336 18.1558 9.59081 18.1558C7.41221 18.1558 5.58802 19.4971 5.1093 21.3002C3.83635 20.4485 3.01352 19.0957 3.01352 17.5725V8.23918C3.01352 5.66185 5.36932 3.57251 8.27536 3.57251ZM15.3794 8.87195C15.6743 9.16286 15.6775 9.63772 15.3865 9.93258L11.3796 13.994C10.7771 14.6047 9.82078 14.6886 9.12115 14.1922L6.5259 12.3509C6.18808 12.1112 6.10853 11.643 6.34822 11.3052C6.58791 10.9674 7.05607 10.8878 7.39389 11.1275L9.98913 12.9689C10.0891 13.0398 10.2257 13.0278 10.3118 12.9405L14.3188 8.8791C14.6097 8.58424 15.0845 8.58104 15.3794 8.87195ZM28.5934 21.5183C28.2096 19.6069 26.3263 18.1558 24.0609 18.1558C22.3861 18.1558 20.9201 18.9489 20.1145 20.1348V8.23918H23.0205C23.6889 8.23918 24.3322 8.46481 24.8199 8.87026L28.4912 11.9228C29.0217 12.3639 29.3227 12.9801 29.3227 13.6251V19.9058C29.3227 20.5313 29.0452 21.0993 28.5934 21.5183ZM12.2217 22.2392C12.2217 23.5278 11.0438 24.5725 9.59081 24.5725C8.1378 24.5725 6.9599 23.5278 6.9599 22.2392C6.9599 22.1902 6.9616 22.1416 6.96495 22.0933C7.04985 20.8726 8.19304 19.9058 9.59081 19.9058C11.0438 19.9058 12.2217 20.9505 12.2217 22.2392ZM26.6918 22.2392C26.6918 23.5278 25.5139 24.5725 24.0609 24.5725C22.6078 24.5725 21.4299 23.5278 21.4299 22.2392C21.4299 20.9505 22.6078 19.9058 24.0609 19.9058C25.5139 19.9058 26.6918 20.9505 26.6918 22.2392Z" fill="#28303F"/>
</svg>
