<svg width="28" height="24" viewBox="0 0 28 24" fill="none" xmlns="http://www.w3.org/2000/svg">
<path fill-rule="evenodd" clip-rule="evenodd" d="M7.51168 3.06213H11.4927C14.0054 3.06213 16.0424 4.85299 16.0424 7.06213V19.0621H12.6301C12.6301 17.1291 10.8478 15.5621 8.64911 15.5621C6.76535 15.5621 5.18805 16.7118 4.77411 18.2573C3.67344 17.5272 2.96198 16.3677 2.96198 15.0621V7.06213C2.96198 4.85299 4.99895 3.06213 7.51168 3.06213ZM10.924 19.0621C10.924 20.1667 9.90548 21.0621 8.64911 21.0621C7.39274 21.0621 6.37426 20.1667 6.37426 19.0621C6.37426 19.0201 6.37573 18.9785 6.37863 18.9371C6.45204 17.8908 7.44051 17.0621 8.64911 17.0621C9.90548 17.0621 10.924 17.9576 10.924 19.0621ZM23.4357 19.0621C23.4357 20.1667 22.4172 21.0621 21.1608 21.0621C19.9044 21.0621 18.886 20.1667 18.886 19.0621C18.886 17.9576 19.9044 17.0621 21.1608 17.0621C22.4172 17.0621 23.4357 17.9576 23.4357 19.0621ZM21.1608 15.5621C23.1196 15.5621 24.748 16.8059 25.08 18.4442C25.4706 18.0851 25.7105 17.5983 25.7105 17.0621V11.6786C25.7105 11.1258 25.4503 10.5976 24.9915 10.2195L21.8171 7.60306C21.3955 7.25554 20.8392 7.06213 20.2612 7.06213H17.7485V17.2583C18.4451 16.2419 19.7127 15.5621 21.1608 15.5621Z" fill="#28303F"/>
</svg>
